<?xml version="1.0" standalone="no"?>
<!DOCTYPE svg PUBLIC "-//W3C//DTD SVG 20010904//EN"
 "http://www.w3.org/TR/2001/REC-SVG-20010904/DTD/svg10.dtd">
<svg version="1.0" xmlns="http://www.w3.org/2000/svg"
 width="91.000000pt" height="91.000000pt" viewBox="0 0 91.000000 91.000000"
 preserveAspectRatio="xMidYMid meet">
<metadata>
Created by potrace 1.14, written by Peter Selinger 2001-2017
</metadata>
<g transform="translate(0.000000,91.000000) scale(0.100000,-0.100000)"
fill="#000000" stroke="none">
<path d="M330 891 c-188 -59 -321 -232 -322 -421 -1 -57 6 -101 23 -157 l11
-33 153 0 154 0 16 34 c36 76 153 74 185 -4 l12 -30 153 0 153 0 11 28 c18 45
28 117 25 180 -10 180 -129 334 -304 397 -66 24 -203 27 -270 6z m-106 -296
c14 -14 30 -25 36 -25 6 0 21 11 34 25 13 14 33 25 44 25 19 0 20 -3 10 -31
-30 -86 -156 -81 -183 9 -9 31 26 30 59 -3z m386 10 c0 -18 43 -37 65 -29 8 3
17 14 20 25 7 19 55 28 55 9 0 -40 -60 -92 -99 -85 -9 2 -22 4 -29 4 -19 1
-62 51 -62 72 0 14 7 19 25 19 16 0 25 -6 25 -15z"/>
<path d="M77 219 c35 -60 136 -144 209 -174 77 -31 187 -41 264 -24 107 23
244 119 285 200 l16 29 -145 0 c-135 0 -145 -1 -151 -20 -3 -10 -20 -31 -38
-46 -25 -21 -38 -25 -70 -21 -42 6 -74 29 -88 65 -8 21 -12 22 -154 22 l-146
0 18 -31z"/>
</g>
</svg>
